<?xml version="1.0" encoding="UTF-8"?>
<svg id="Vrstva_1" xmlns="http://www.w3.org/2000/svg" version="1.1" viewBox="0 0 56.2689819 51.0400047">
  <!-- Generator: Adobe Illustrator 29.3.1, SVG Export Plug-In . SVG Version: 2.1.0 Build 151)  -->
  <defs>
    <style>
      .st0 {
        fill: #de2c00;
      }
    </style>
  </defs>
  <path class="st0" d="M0,25.5200043c0,14.4329987,10.7379761,25.5200005,24.6129761,25.5200005,9.0640259,0,16.5250244-4.7420006,21.8240051-13.3180008.4880066,3.7649994.7669983,7.8790016.7669983,12.2019997h9.0650024c0-9.901001-1.394989-18.3379974-4.0449829-25.798996,1.743988-6.6230011,2.6499939-14.5720062,2.6499939-23.0090027h-9.0639954c0,3.4860001-.1400146,6.6940002-.4190063,9.762001C40.0219727,3.9750061,32.9099731,0,24.6129761,0,10.7379761,0,0,11.0870056,0,25.5200043M9.3429871,25.5200043c0-9.8310013,6.6239929-17.1529999,15.5490112-17.1529999,7.9489746,0,14.4329834,5.8570023,18.2679749,15.7580032-3.3469849,11.8539963-9.7619934,18.5479965-18.2679749,18.5479965-8.9250183,0-15.5490112-7.3219986-15.5490112-17.1529999"/>
</svg>